<svg width="24" height="24" viewBox="0 0 24 24" fill="none" xmlns="http://www.w3.org/2000/svg">
<path d="M19 12C19 14.3 18.2 16.5 17 18.2L17.7 19C19.2 17.1 20.1 14.6 20.1 12C20.1 8.9 18.9 6.1 16.9 4L16.4 5C18 6.8 19 9.3 19 12Z" fill="#1C2E45" fill-opacity="1"/>
<path d="M15.8 5.90002L15.3 6.90002C16.4 8.30002 17 10.1 17 12C17 13.7 16.5 15.2 15.7 16.6L16.4 17.4C17.5 15.9 18.1 14 18.1 12C18 9.70002 17.2 7.60002 15.8 5.90002Z" fill="#1C2E45" fill-opacity="1"/>
<path d="M14.8 7.90002L14.3 9.00002C14.8 9.90002 15.1 10.9 15.1 12C15.1 13 14.8 14 14.4 14.9L15.1 15.8C15.7 14.7 16.1 13.4 16.1 12.1C16 10.5 15.6 9.10002 14.8 7.90002Z" fill="#1C2E45" fill-opacity="1"/>
<path d="M8 8.5H4V14.5H8L13 18.5V4.5L8 8.5Z" fill="#1C2E45" fill-opacity="1"/>
</svg>
