<svg width="24" height="24" viewBox="0 0 24 24" fill="none" xmlns="http://www.w3.org/2000/svg">
<path d="M12 9H11V14H15V13L12.07 13.07L12 9Z" fill="#1C2E45" fill-opacity="0.6"/>
<path d="M9.46002 4.87016C9.07302 4.34816 8.46002 4.01416 7.76802 4.01416C7.35802 4.01416 6.97502 4.13216 6.65102 4.33516L5.66002 5.10016C5.25002 5.48416 4.99402 6.02916 4.99402 6.63416C4.99402 7.13016 5.16602 7.58516 5.45302 7.94416L9.46002 4.87016Z" fill="#1C2E45" fill-opacity="0.6"/>
<path d="M18.3399 5.10016L17.3399 4.33016C17.0249 4.13216 16.6419 4.01416 16.2319 4.01416C15.5399 4.01416 14.9269 4.34816 14.5439 4.86416L18.5399 7.94016C18.8269 7.58416 18.9999 7.12716 18.9999 6.62816C18.9999 6.02616 18.7469 5.48316 18.3409 5.10016H18.3399Z" fill="#1C2E45" fill-opacity="0.6"/>
<path d="M16.87 18C18.178 16.732 18.992 14.962 19 13.002C18.972 9.146 15.855 6.029 12.003 6C8.146 6.028 5.028 9.145 5 12.997C5.008 14.962 5.822 16.732 7.128 17.998L6.19 18.94C6.115 19.042 6.07 19.171 6.07 19.31C6.07 19.658 6.352 19.94 6.7 19.94C6.839 19.94 6.968 19.895 7.072 19.818L8.07 18.819C9.162 19.577 10.516 20.03 11.975 20.03C13.434 20.03 14.788 19.577 15.903 18.804L16.88 19.819C16.982 19.894 17.111 19.939 17.25 19.939C17.598 19.939 17.88 19.657 17.88 19.309C17.88 19.17 17.835 19.041 17.758 18.937L16.87 18ZM6.87 13C6.898 10.178 9.178 7.898 11.997 7.87C14.822 7.898 17.102 10.178 17.13 12.997C17.102 15.822 14.822 18.102 12.003 18.13C9.178 18.102 6.898 15.822 6.87 13.003V13Z" fill="#1C2E45" fill-opacity="0.6"/>
</svg>