<svg width="24" height="24" viewBox="0 0 24 24" fill="none" xmlns="http://www.w3.org/2000/svg">
<path d="M10 18H14C14 18 14.1 20 12 20C9.90002 20 10 18 10 18Z" fill="#1C2E45" fill-opacity="0.6"/>
<path d="M16.7 15.4C16.2 15.2 16 14.7 16 14.2V9C16 9 15.8 6.6 13 6.1V5C13 5 13.1 4 12 4C10.9 4 11 5 11 5V6.1C8.2 6.6 8 9 8 9V14.2C8 14.7 7.7 15.2 7.3 15.4L6 16V17H18V16L16.7 15.4ZM10 8.8V16H8C8.8 16 9 15 9 15V9C9 9 9 8.2 9.7 7.6C10.4 6.9 11 7 11 7C11 7 10 7.7 10 8.8Z" fill="#1C2E45" fill-opacity="1"/>
</svg>
