<svg width="24" height="24" viewBox="0 0 24 24" fill="none" xmlns="http://www.w3.org/2000/svg">
<path d="M19.5 17.4L11.7 9.6C11.9 9.1 12 8.6 12 8C12 5.8 10.2 4 8 4C7.4 4 6.9 4.1 6.4 4.3L9.3 7.2L7.2 9.3L4.3 6.4C4.1 6.9 4 7.4 4 8C4 10.2 5.8 12 8 12C8.6 12 9.1 11.9 9.6 11.7L17.4 19.5C18 20.1 18.9 20.1 19.5 19.5C20.1 18.9 20.1 18 19.5 17.4ZM10.8 11.6L9.4 10.2L10.3 9.3L11.7 10.7L10.8 11.6ZM18.2 19C17.8 19 17.4 18.7 17.4 18.2C17.4 17.8 17.7 17.4 18.2 17.4C18.7 17.4 19 17.7 19 18.2C19 18.7 18.7 19 18.2 19Z" fill="#1C2E45" fill-opacity="1"/>
</svg>