<svg width="24" height="24" viewBox="0 0 24 24" fill="none" xmlns="http://www.w3.org/2000/svg">
<path d="M10.16 8.59998C11.274 9.33398 12 10.579 12 11.994C12 11.996 12 11.998 12 12C12 11.998 12 11.996 12 11.994C12 10.579 12.726 9.33398 13.825 8.60998C14.398 8.22498 14.809 7.67098 14.995 7.02098L9 7.00098C9.191 7.67098 9.603 8.22598 10.15 8.59498L10.16 8.59998Z" fill="#1C2E45" fill-opacity="1"/>
<path d="M15.18 10.06C16.287 9.252 16.999 7.959 17 6.5V6H18V4H6V6H7V6.5C7.001 7.959 7.713 9.252 8.808 10.051C9.48 10.481 9.929 11.181 10 11.99C9.907 12.838 9.449 13.554 8.791 13.993C7.71 14.807 7.019 16.071 7.001 17.496V17.999H6.001V19.999H18.001V17.999H17.001V17.499C16.983 16.07 16.292 14.807 15.232 14.007C14.552 13.553 14.094 12.838 14.002 12.011C14.073 11.18 14.522 10.479 15.171 10.065L15.18 10.06ZM13 12C13.072 13.142 13.655 14.136 14.519 14.763C15.396 15.386 15.964 16.373 16 17.495V18H8V17.5C8.036 16.373 8.604 15.386 9.459 14.777C10.345 14.135 10.927 13.142 10.999 12.011C10.936 10.887 10.358 9.92 9.501 9.328C8.587 8.695 8.002 7.666 7.999 6.501V6.001H15.999V6.501C15.996 7.667 15.412 8.696 14.52 9.314C13.64 9.921 13.062 10.888 12.999 11.992L13 12Z" fill="#1C2E45" fill-opacity="1"/>
</svg>